<?xml version="1.0" encoding="UTF-8"?><svg id="Vrstva_2" xmlns="http://www.w3.org/2000/svg" viewBox="0 0 38.69 38.69"><defs><style>.cls-1{stroke-width:0px;}</style></defs><g id="Objects"><path class="cls-1" d="m31.83,9.01c0,1.24-1,2.24-2.24,2.24s-2.24-1.01-2.24-2.24,1.01-2.24,2.24-2.24,2.24,1.01,2.24,2.24Zm-2.79,10.06c0,5.2-4.23,9.43-9.43,9.43s-9.43-4.23-9.43-9.43,4.23-9.43,9.43-9.43,9.43,4.23,9.43,9.43Zm-3.39,0c0-3.33-2.71-6.04-6.04-6.04s-6.04,2.71-6.04,6.04,2.71,6.04,6.04,6.04,6.04-2.71,6.04-6.04Zm13.04-7.57c0-6.35-5.15-11.5-11.5-11.5h-15.69C5.15,0,0,5.15,0,11.5v15.69c0,6.35,5.15,11.5,11.5,11.5h15.69c6.35,0,11.5-5.15,11.5-11.5v-15.69Zm-3.78,15.52c0,4.36-3.54,7.9-7.9,7.9h-15.35c-4.36,0-7.9-3.54-7.9-7.9v-15.35c0-4.36,3.54-7.9,7.9-7.9h15.35c4.36,0,7.9,3.54,7.9,7.9v15.35Z"/></g></svg>