<?xml version="1.0" encoding="utf-8"?>
<!-- Generator: Adobe Illustrator 28.1.0, SVG Export Plug-In . SVG Version: 6.00 Build 0)  -->
<svg version="1.1" id="Vrstva_1" xmlns="http://www.w3.org/2000/svg" xmlns:xlink="http://www.w3.org/1999/xlink" x="0px" y="0px"
	 viewBox="0 0 135 135" style="enable-background:new 0 0 135 135;" xml:space="preserve">
<style type="text/css">
	.st0{fill:#FFFFFF;}
</style>
<g>
	<circle class="st0" cx="67.5" cy="67.5" r="14.17"/>
	<path class="st0" d="M100.63,42.43c-0.77-1.98-1.69-3.4-3.18-4.89c-1.49-1.49-2.9-2.41-4.89-3.18c-1.5-0.58-3.75-1.27-7.89-1.46
		c-4.48-0.2-5.83-0.25-17.17-0.25s-12.69,0.04-17.17,0.25c-4.14,0.19-6.39,0.88-7.89,1.46c-1.98,0.77-3.4,1.69-4.89,3.18
		s-2.41,2.9-3.18,4.89c-0.58,1.5-1.27,3.75-1.46,7.89c-0.2,4.48-0.25,5.83-0.25,17.17c0,11.35,0.04,12.69,0.25,17.17
		c0.19,4.14,0.88,6.39,1.46,7.89c0.77,1.98,1.69,3.4,3.18,4.89c1.49,1.49,2.9,2.41,4.89,3.18c1.5,0.58,3.75,1.27,7.89,1.46
		c4.48,0.2,5.82,0.25,17.17,0.25c11.35,0,12.69-0.04,17.17-0.25c4.14-0.19,6.39-0.88,7.89-1.46c1.98-0.77,3.4-1.69,4.89-3.18
		c1.49-1.49,2.41-2.9,3.18-4.89c0.58-1.5,1.27-3.75,1.46-7.89c0.2-4.48,0.25-5.83,0.25-17.17c0-11.35-0.04-12.69-0.25-17.17
		C101.91,46.18,101.21,43.93,100.63,42.43z M67.5,89.32c-12.05,0-21.82-9.77-21.82-21.82c0-12.05,9.77-21.82,21.82-21.82
		c12.05,0,21.82,9.77,21.82,21.82C89.32,79.55,79.55,89.32,67.5,89.32z M90.19,49.91c-2.82,0-5.1-2.28-5.1-5.1
		c0-2.82,2.28-5.1,5.1-5.1s5.1,2.28,5.1,5.1C95.29,47.63,93,49.91,90.19,49.91z"/>
	<path class="st0" d="M67.5,0C30.22,0,0,30.22,0,67.5C0,104.78,30.22,135,67.5,135c37.28,0,67.5-30.22,67.5-67.5
		C135,30.22,104.78,0,67.5,0z M109.74,85.02c-0.21,4.52-0.92,7.61-1.98,10.32c-1.09,2.79-2.54,5.16-4.9,7.53
		c-2.36,2.36-4.73,3.82-7.53,4.9c-2.7,1.05-5.79,1.77-10.32,1.98c-4.53,0.21-5.98,0.26-17.52,0.26s-12.99-0.05-17.52-0.26
		c-4.52-0.21-7.61-0.92-10.32-1.98c-2.79-1.09-5.16-2.54-7.53-4.9c-2.36-2.36-3.82-4.73-4.9-7.53c-1.05-2.7-1.77-5.79-1.98-10.32
		C25.05,80.49,25,79.04,25,67.5c0-11.54,0.05-12.99,0.26-17.52c0.21-4.52,0.92-7.61,1.98-10.32c1.09-2.79,2.54-5.16,4.9-7.53
		c2.36-2.36,4.73-3.82,7.53-4.9c2.7-1.05,5.79-1.77,10.32-1.98C54.51,25.05,55.96,25,67.5,25s12.99,0.05,17.52,0.26
		c4.52,0.21,7.61,0.92,10.32,1.98c2.79,1.09,5.16,2.54,7.53,4.9c2.36,2.36,3.82,4.73,4.9,7.53c1.05,2.7,1.77,5.79,1.98,10.32
		c0.21,4.53,0.26,5.98,0.26,17.52S109.95,80.49,109.74,85.02z"/>
</g>
</svg>
