<?xml version="1.0" encoding="utf-8"?>
<!-- Generator: Adobe Illustrator 28.1.0, SVG Export Plug-In . SVG Version: 6.00 Build 0)  -->
<svg version="1.1" id="Vrstva_1" xmlns="http://www.w3.org/2000/svg" xmlns:xlink="http://www.w3.org/1999/xlink" x="0px" y="0px"
	 viewBox="0 0 135 135" style="enable-background:new 0 0 135 135;" xml:space="preserve">
<style type="text/css">
	.st0{fill-rule:evenodd;clip-rule:evenodd;fill:#FFFFFF;}
</style>
<g>
	<path class="st0" d="M65.17,53.56c-7.1-12.58-14.7-23.16-15.84-24.67C37.4,34.53,28.45,45.54,25.69,58.77
		C27.59,58.77,45.21,58.88,65.17,53.56z"/>
	<path class="st0" d="M70.43,67.93c0.54-0.16,1.14-0.33,1.68-0.49c-1.08-2.44-2.22-4.88-3.47-7.27c-21.31,6.4-42.03,6.13-43.87,6.07
		c0,0.43,0,0.87,0,1.3c0,10.95,4.18,20.99,10.95,28.52C36.7,94.45,48.41,75.04,70.43,67.93z"/>
	<path class="st0" d="M95.81,35.61c-7.54-6.67-17.46-10.74-28.31-10.74c-3.47,0-6.83,0.38-10.03,1.14c1.19,1.63,8.95,12.15,15.94,25
		C88.6,45.32,95.05,36.7,95.81,35.61z"/>
	<path class="st0" d="M79.54,63.54c0.33,0.76,0.6,1.52,0.92,2.22c14.21-1.79,28.31,1.08,29.72,1.36
		c-0.11-10.03-3.69-19.31-9.65-26.57c-0.92,1.19-8.08,10.41-23.81,16.81C77.7,59.37,78.67,61.48,79.54,63.54z"/>
	<path class="st0" d="M74.82,74.55c-24.08,8.41-32.75,25.11-33.51,26.68c7.21,5.64,16.32,9,26.19,9c5.91,0,11.55-1.19,16.7-3.42
		c-0.65-3.74-3.09-16.81-9.11-32.38C74.98,74.5,74.93,74.5,74.82,74.55z"/>
	<path class="st0" d="M67.5,0C30.22,0,0,30.22,0,67.5C0,104.78,30.22,135,67.5,135c37.28,0,67.5-30.22,67.5-67.5
		C135,30.22,104.78,0,67.5,0z M67.5,117.5c-27.6,0-50-22.4-50-50c0-27.6,22.4-50,50-50c27.55,0,50,22.4,50,50
		C117.5,95.1,95.05,117.5,67.5,117.5z"/>
	<path class="st0" d="M83.01,72.49c5.59,15.35,7.86,27.82,8.3,30.42c9.6-6.45,16.43-16.7,18.28-28.58
		C108.12,73.84,96.4,70.37,83.01,72.49z"/>
</g>
</svg>
